<?xml version="1.0" encoding="utf-8"?>
<!-- Generator: Adobe Illustrator 24.1.2, SVG Export Plug-In . SVG Version: 6.00 Build 0)  -->
<svg version="1.1" id="Layer_1" xmlns="http://www.w3.org/2000/svg" xmlns:xlink="http://www.w3.org/1999/xlink" x="0px" y="0px"
	 viewBox="0 0 50 50" style="enable-background:new 0 0 50 50;" xml:space="preserve">
<style type="text/css">
	.cls-1{fill:#FFFFFF;}
</style>
<g>
	<path class="cls-1" d="M49.6,23.4C48.8,11,39,1.2,26.6,0.4V0.3H25h-1.6v0.1C11,1.2,1.2,11,0.4,23.4H0.3V25v1.6h0.1
		c0.8,12.3,10.7,22.2,23,23v0.1H25h1.6v-0.1c12.3-0.8,22.2-10.7,23-23h0.1V25L49.6,23.4L49.6,23.4z M15.8,5.7
		c-1.6,2.1-2.9,4.8-3.9,7.8H7C9.1,10.1,12.2,7.4,15.8,5.7z M5.2,16.8H11c-0.4,2.1-0.7,4.3-0.8,6.6H3.7C3.8,21,4.4,18.8,5.2,16.8z
		 M3.7,26.6h6.6c0.1,2.3,0.4,4.5,0.8,6.6H5.2C4.4,31.2,3.8,29,3.7,26.6z M7,36.5h4.9c1,3,2.3,5.7,3.9,7.8C12.2,42.6,9.1,39.9,7,36.5
		z M23.4,46.2c-3.4-0.9-6.3-4.5-8.1-9.7h8.1V46.2z M23.4,33.2h-9c-0.5-2.1-0.8-4.3-0.9-6.6h9.8V33.2z M23.4,23.4h-9.8
		c0.1-2.3,0.4-4.5,0.9-6.6h9V23.4z M23.4,13.5h-8.1c1.8-5.1,4.7-8.8,8.1-9.7V13.5z M43,13.5h-4.9c-1-3-2.3-5.7-3.9-7.8
		C37.8,7.4,40.9,10.1,43,13.5z M26.6,3.8c3.4,0.9,6.3,4.5,8.1,9.7h-8.1V3.8z M26.6,16.8h9c0.5,2.1,0.8,4.3,0.9,6.6h-9.8V16.8z
		 M26.6,26.6h9.8c-0.1,2.3-0.4,4.5-0.9,6.6h-9V26.6z M26.6,46.2v-9.7h8.1C32.9,41.6,30,45.3,26.6,46.2z M34.2,44.3
		c1.6-2.1,2.9-4.8,3.9-7.8H43C40.9,39.9,37.8,42.6,34.2,44.3z M44.8,33.2H39c0.4-2.1,0.7-4.3,0.8-6.6h6.5
		C46.2,29,45.6,31.2,44.8,33.2z M39.8,23.4c-0.1-2.3-0.4-4.5-0.8-6.6h5.8c0.9,2.1,1.4,4.3,1.6,6.6H39.8z"/>
</g>
</svg>
